<svg xmlns:xlink="http://www.w3.org/1999/xlink"
  xmlns="http://www.w3.org/2000/svg" width="150" height="36" viewBox="0 0 150 36" fill="none">
  <path fill-rule="evenodd" clip-rule="evenodd" d="M86.652 6.42902C79.0117 6.42902 72.7691 13.1376 72.7691 21.5232C73.5135 21.8028 74.2599 22.0823 74.9111 22.455C75.7506 22.8277 76.5883 23.3867 77.2405 23.7594C77.1483 23.1072 77.0542 22.455 77.0542 21.7096C77.0542 15.9328 81.3411 11.2741 86.652 11.2741C91.962 11.2741 96.249 16.026 96.249 21.7096C96.249 22.455 96.0626 23.7594 95.9695 24.4116C97.9261 23.9458 99.9759 22.3618 100.534 21.6164C100.534 13.1376 94.2914 6.42902 86.652 6.42902ZM140.133 17.4236C140.878 18.9144 142.557 19.7529 144.234 19.7529C145.818 19.7529 147.495 18.8212 147.495 17.1441C147.495 13.3239 139.201 16.026 139.201 10.6219C139.201 7.91981 141.718 6.61537 144.047 6.61537C146.284 6.61537 148.053 7.45394 148.985 9.22425L147.308 10.156C146.563 8.85155 145.631 8.19933 143.954 8.19933C142.65 8.19933 140.973 8.94473 140.973 10.4355C140.973 14.2557 149.264 11.2741 149.264 16.9577C149.264 19.8461 146.843 21.3369 144.14 21.3369C141.718 21.3369 139.575 20.4052 138.457 18.4485L140.133 17.4236ZM136.593 18.9144C135.196 20.5915 133.425 21.3369 131.469 21.3369C127.183 21.3369 124.107 18.2621 124.107 13.9761C124.107 9.69012 127.183 6.61537 131.469 6.61537C133.519 6.61537 135.288 7.45394 136.686 9.0379L135.196 10.156C134.171 9.0379 132.866 8.29251 131.469 8.29251C128.02 8.29251 125.878 10.9014 125.878 14.0693C125.878 17.2372 128.02 19.8461 131.469 19.8461C132.959 19.8461 134.264 19.1007 135.196 17.8895L136.593 18.9144ZM119.077 20.9642H120.94V6.89489H119.077V20.9642ZM120.008 0C120.754 0 121.406 0.65222 121.406 1.39761C121.406 2.14301 120.754 2.79523 120.008 2.79523C119.263 2.79523 118.611 2.14301 118.611 1.39761C118.611 0.559045 119.263 0 120.008 0ZM103.517 6.98807H105.38C105.38 8.01298 105.472 9.13107 105.472 9.4106H105.566C106.312 7.82663 108.082 6.61537 110.411 6.61537C114.79 6.61537 115.721 9.59694 115.721 12.6717V21.0574H113.858V12.7649C113.858 10.5287 113.207 8.29251 110.317 8.29251C107.616 8.29251 105.472 10.156 105.472 14.0693V21.0574H103.609C103.609 21.0574 103.517 7.64029 103.517 6.98807ZM65.4083 6.98807H67.2718C67.2718 8.01298 67.365 9.13107 67.365 9.4106C68.2967 7.73346 69.6943 6.61537 71.8373 6.61537C72.21 6.61537 72.5818 6.70854 72.8622 6.80172L72.6759 8.57203C72.3964 8.47885 72.1159 8.47885 71.9305 8.47885C68.7626 8.47885 67.365 10.6219 67.365 13.4171V21.0574H65.5015C65.5015 21.0574 65.4083 7.64029 65.4083 6.98807ZM61.7745 8.57203H57.768V17.7031C57.768 18.9144 58.5134 19.6598 59.7247 19.6598C60.4691 19.6598 61.1223 19.4734 61.7745 19.1939L61.9609 20.871C61.3086 21.1505 60.2837 21.3369 59.6315 21.3369C57.0226 21.3369 55.9977 19.7529 55.9977 17.7031V8.57203H52.923V6.89489H55.9977V2.8884H57.8612V6.89489H61.8668V8.57203H61.7745ZM43.9782 25.3434C43.2319 27.1137 42.1147 28.325 40.1581 28.325C39.5049 28.325 38.9468 28.2318 38.3878 28.0454L38.5732 26.3683C39.1332 26.5547 39.6922 26.741 40.2513 26.741C41.5557 26.741 42.2079 25.5297 42.5806 24.4116L43.8851 21.1505L38.0151 6.89489H40.0649L44.7236 18.728L49.2882 6.89489H51.2458L43.9782 25.3434ZM32.1451 13.883C29.0704 13.883 26.0888 14.6284 26.0888 17.0509C26.0888 18.8212 27.7659 19.6598 29.2558 19.6598C33.17 19.6598 34.1949 17.1441 34.1949 14.8147V13.883H32.1451ZM35.778 15.0942C35.778 17.7963 35.8721 19.3802 36.0584 20.9642H34.3804C34.2881 20.2188 34.1949 19.4734 34.1949 18.728H34.1018C33.0768 20.4983 31.5851 21.3369 29.1635 21.3369C26.741 21.3369 24.2253 20.1256 24.2253 17.1441C24.2253 12.858 29.2558 12.3922 32.051 12.3922H34.1018V11.5536C34.1018 9.13107 32.4246 8.10616 30.1875 8.10616C28.5113 8.10616 27.1137 8.6652 25.9024 9.69012L24.8775 8.47885C26.182 7.17442 28.4181 6.5222 30.1875 6.5222C33.6359 6.5222 35.778 8.01298 35.778 11.5536V15.0942ZM0 6.98807H1.86348C1.86348 8.01298 1.95666 9.13107 1.95666 9.4106H2.04983C2.79523 7.82663 4.5646 6.61537 6.89396 6.61537C8.75744 6.61537 10.4355 7.54711 11.0868 9.69012C11.9263 7.54711 13.882 6.61537 15.8396 6.61537C20.2188 6.61537 21.1505 9.59694 21.1505 12.6717V21.0574H19.2871V12.7649C19.2871 10.5287 18.6348 8.29251 15.7455 8.29251C12.3922 8.29251 11.4604 11.1809 11.4604 13.1376V21.0574H9.59694V12.5785C9.59694 9.96964 8.6652 8.29251 6.70854 8.29251C4.00649 8.29251 1.86348 10.156 1.86348 14.0693V21.0574H0V6.98807Z" fill="black"/>
  <path fill-rule="evenodd" clip-rule="evenodd" d="M99.51 24.8779C96.9011 27.3004 92.4278 29.6298 86.8373 29.2562C84.0421 29.0707 81.341 28.2322 79.0116 26.9268C78.4517 26.6473 77.7072 26.1814 77.3345 25.9951C76.9618 25.8096 76.5882 25.5292 76.2164 25.3438C75.471 24.8779 74.7256 24.5052 73.9802 24.1316C70.9986 22.6417 67.5512 22.1758 64.2901 22.5485C57.9543 23.2939 53.2024 26.7414 52.9229 26.9268C53.2024 26.8346 57.8611 24.6915 63.6379 25.2497C66.5263 25.5292 69.5079 26.6473 71.9304 28.4185C72.5826 28.8844 73.1417 29.3503 73.7007 29.9084C73.9802 30.1879 74.2597 30.4683 74.5393 30.7479C74.8188 31.0274 75.3778 31.4933 75.8437 31.866C77.7072 33.449 79.9434 34.6612 82.3659 35.4066C87.211 36.8042 91.5901 35.4988 94.199 33.9149C96.9011 32.2377 98.4841 30.282 99.4159 28.698C101.187 25.4369 100.908 23.4803 100.908 23.4803C100.535 23.9462 100.069 24.412 99.51 24.8779Z" fill="#58C8DF"/>
</svg>